<mxfile host="app.diagrams.net" modified="2022-05-16T07:02:07.352Z" agent="5.0 (Windows NT 10.0; Win64; x64) AppleWebKit/537.36 (KHTML, like Gecko) Chrome/101.0.4951.64 Safari/537.36 Edg/101.0.1210.47" etag="gcvhx46OX-Ffjq0-hppz" version="18.0.5" type="github">
  <diagram id="mYFpstsSvWDnRYr4N04-" name="Page-1">
    <mxGraphModel dx="981" dy="548" grid="1" gridSize="10" guides="1" tooltips="1" connect="1" arrows="1" fold="1" page="1" pageScale="1" pageWidth="827" pageHeight="1169" math="0" shadow="0">
      <root>
        <mxCell id="0" />
        <mxCell id="1" parent="0" />
        <mxCell id="pCbNi0aIJl6pwWJ58XPm-5" value="" style="edgeStyle=orthogonalEdgeStyle;rounded=0;orthogonalLoop=1;jettySize=auto;html=1;" edge="1" parent="1" source="pCbNi0aIJl6pwWJ58XPm-1" target="pCbNi0aIJl6pwWJ58XPm-2">
          <mxGeometry relative="1" as="geometry">
            <Array as="points">
              <mxPoint x="350" y="300" />
              <mxPoint x="350" y="300" />
            </Array>
          </mxGeometry>
        </mxCell>
        <mxCell id="pCbNi0aIJl6pwWJ58XPm-6" value="" style="edgeStyle=orthogonalEdgeStyle;rounded=0;orthogonalLoop=1;jettySize=auto;html=1;startArrow=classic;startFill=1;endArrow=none;endFill=0;" edge="1" parent="1" source="pCbNi0aIJl6pwWJ58XPm-1" target="pCbNi0aIJl6pwWJ58XPm-2">
          <mxGeometry relative="1" as="geometry">
            <Array as="points">
              <mxPoint x="410" y="290" />
              <mxPoint x="410" y="290" />
            </Array>
          </mxGeometry>
        </mxCell>
        <mxCell id="pCbNi0aIJl6pwWJ58XPm-1" value="Application" style="rounded=0;whiteSpace=wrap;html=1;" vertex="1" parent="1">
          <mxGeometry x="320" y="240" width="120" height="30" as="geometry" />
        </mxCell>
        <mxCell id="pCbNi0aIJl6pwWJ58XPm-9" value="" style="edgeStyle=orthogonalEdgeStyle;rounded=0;orthogonalLoop=1;jettySize=auto;html=1;startArrow=classic;startFill=1;endArrow=none;endFill=0;" edge="1" parent="1" source="pCbNi0aIJl6pwWJ58XPm-2" target="pCbNi0aIJl6pwWJ58XPm-4">
          <mxGeometry relative="1" as="geometry">
            <Array as="points">
              <mxPoint x="490" y="320" />
            </Array>
          </mxGeometry>
        </mxCell>
        <mxCell id="pCbNi0aIJl6pwWJ58XPm-10" style="edgeStyle=orthogonalEdgeStyle;rounded=0;orthogonalLoop=1;jettySize=auto;html=1;entryX=0.5;entryY=0;entryDx=0;entryDy=0;startArrow=none;startFill=0;endArrow=classic;endFill=1;" edge="1" parent="1" source="pCbNi0aIJl6pwWJ58XPm-2" target="pCbNi0aIJl6pwWJ58XPm-4">
          <mxGeometry relative="1" as="geometry">
            <Array as="points">
              <mxPoint x="460" y="335" />
            </Array>
          </mxGeometry>
        </mxCell>
        <mxCell id="pCbNi0aIJl6pwWJ58XPm-13" style="edgeStyle=orthogonalEdgeStyle;rounded=0;orthogonalLoop=1;jettySize=auto;html=1;entryX=0.25;entryY=0;entryDx=0;entryDy=0;startArrow=none;startFill=0;endArrow=classic;endFill=1;" edge="1" parent="1" source="pCbNi0aIJl6pwWJ58XPm-2" target="pCbNi0aIJl6pwWJ58XPm-3">
          <mxGeometry relative="1" as="geometry">
            <Array as="points">
              <mxPoint x="270" y="320" />
            </Array>
          </mxGeometry>
        </mxCell>
        <mxCell id="pCbNi0aIJl6pwWJ58XPm-14" style="edgeStyle=orthogonalEdgeStyle;rounded=0;orthogonalLoop=1;jettySize=auto;html=1;entryX=0.5;entryY=0;entryDx=0;entryDy=0;startArrow=classic;startFill=1;endArrow=none;endFill=0;" edge="1" parent="1" source="pCbNi0aIJl6pwWJ58XPm-2" target="pCbNi0aIJl6pwWJ58XPm-3">
          <mxGeometry relative="1" as="geometry">
            <Array as="points">
              <mxPoint x="300" y="335" />
            </Array>
          </mxGeometry>
        </mxCell>
        <mxCell id="pCbNi0aIJl6pwWJ58XPm-2" value="Cache 解决方案" style="rounded=0;whiteSpace=wrap;html=1;" vertex="1" parent="1">
          <mxGeometry x="320" y="320" width="120" height="30" as="geometry" />
        </mxCell>
        <mxCell id="pCbNi0aIJl6pwWJ58XPm-3" value="Backend Storage&lt;br&gt;（big &amp;amp; slow)" style="rounded=0;whiteSpace=wrap;html=1;" vertex="1" parent="1">
          <mxGeometry x="240" y="390" width="120" height="30" as="geometry" />
        </mxCell>
        <mxCell id="pCbNi0aIJl6pwWJ58XPm-4" value="Cache Storage&lt;br&gt;（small &amp;amp; fast)" style="rounded=0;whiteSpace=wrap;html=1;" vertex="1" parent="1">
          <mxGeometry x="400" y="390" width="120" height="30" as="geometry" />
        </mxCell>
        <mxCell id="pCbNi0aIJl6pwWJ58XPm-7" value="Read IO" style="text;html=1;align=center;verticalAlign=middle;resizable=0;points=[];autosize=1;strokeColor=none;fillColor=none;" vertex="1" parent="1">
          <mxGeometry x="410" y="290" width="60" height="20" as="geometry" />
        </mxCell>
        <mxCell id="pCbNi0aIJl6pwWJ58XPm-8" value="Write IO" style="text;html=1;align=center;verticalAlign=middle;resizable=0;points=[];autosize=1;strokeColor=none;fillColor=none;" vertex="1" parent="1">
          <mxGeometry x="280" y="290" width="60" height="20" as="geometry" />
        </mxCell>
        <mxCell id="pCbNi0aIJl6pwWJ58XPm-15" value="业务IO尽可能多流经Cache Storage" style="text;html=1;align=center;verticalAlign=middle;resizable=0;points=[];autosize=1;strokeColor=none;fillColor=none;" vertex="1" parent="1">
          <mxGeometry x="385" y="360" width="200" height="20" as="geometry" />
        </mxCell>
        <mxCell id="pCbNi0aIJl6pwWJ58XPm-16" value="业务IO尽可能少流经Cache Storage" style="text;html=1;align=center;verticalAlign=middle;resizable=0;points=[];autosize=1;strokeColor=none;fillColor=none;rounded=0;shadow=0;sketch=0;glass=0;imageAspect=1;" vertex="1" parent="1">
          <mxGeometry x="180" y="360" width="200" height="20" as="geometry" />
        </mxCell>
      </root>
    </mxGraphModel>
  </diagram>
</mxfile>
